<?xml version="1.0" encoding="utf-8"?>
<!-- Generator: Adobe Illustrator 23.0.3, SVG Export Plug-In . SVG Version: 6.00 Build 0)  -->
<svg version="1.1" id="Layer_1" xmlns="http://www.w3.org/2000/svg" xmlns:xlink="http://www.w3.org/1999/xlink" x="0px" y="0px"
	 viewBox="0 0 595.28 738.2" style="enable-background:new 0 0 595.28 738.2;" xml:space="preserve">
<style type="text/css">
	.st0{fill:#2B3990;stroke:#000000;stroke-width:0.5;stroke-miterlimit:10;}
	.st1{fill:#FFFFFF;stroke:#000000;stroke-width:0.5;stroke-miterlimit:10;}
	.st2{fill:#FFFFFF;stroke:#2B3990;stroke-width:0.25;stroke-miterlimit:10;}
</style>
<g>
	<g>
		<path class="st2" d="M556.74,302.6c1.65,28.14-3.67,54.97-12.71,81.18c-11.75,34.09-30.26,64.24-55.42,89.89
			c-38.75,39.51-85.1,66.06-139.57,77.22c-42.79,8.76-85.13,6.19-126.71-7.48c-44.39-14.6-83.15-38.3-114.92-72.64
			c-35.46-38.34-57.62-83.42-64.71-135.33c-4.16-30.43-2.08-60.66,4.43-90.8c9.54-44.15,30.93-82,61.35-114.42
			c42.85-45.66,95.6-73.03,158.35-80.36c47.1-5.5,92.44,0.73,135.85,19.57c25.52,11.08,48.46,26.41,69.26,45.01
			c23.22,20.78,42.4,44.74,57,72.19c15.02,28.23,23.95,58.54,27.64,90.27C557.59,285.43,556.74,294.19,556.74,302.6z M311.8,59.38
			c-62.42,0.3-109.57,13.66-151.91,42.28c-30.35,20.52-54.8,46.79-73.86,78.23c-21.14,34.86-32.25,72.67-34.04,113.13
			c-2.07,46.72,9.76,90.19,33.66,130.22c21.78,36.49,51.5,65.13,88.26,86.51c37.15,21.61,77.1,34.23,120.08,34.97
			c30.43,0.52,60.34-3.85,89.08-15.1c70.28-27.5,120.76-75.16,148-145.88c11.83-30.72,18.1-62.69,15.2-96.16
			c-2.32-26.68-8.12-52.42-18.54-76.9c-18.6-43.7-48.32-78.56-86.97-106C398.69,74.82,351.72,60.39,311.8,59.38z"/>
		<path class="st2" d="M89.35,107.46c-6.25,0.07-11.89-5.3-12.05-11.48c-0.14-5.31,5.23-10.59,10.93-10.77
			c6.19-0.19,11.43,4.88,11.57,11.2C99.93,102.21,95.02,107.4,89.35,107.46z"/>
		<path class="st2" d="M65.51,133.54c-3.54,0.04-6.74-2.97-6.83-6.43c-0.08-2.97,2.96-5.94,6.2-6.04c3.51-0.11,6.48,2.73,6.56,6.27
			C71.51,130.59,68.73,133.5,65.51,133.54z"/>
		<path class="st2" d="M49.29,153.18c-2.36,0.03-4.49-2.02-4.55-4.39c-0.05-2.03,1.98-4.05,4.13-4.12c2.34-0.07,4.32,1.86,4.37,4.28
			C53.28,151.17,51.43,153.16,49.29,153.18z"/>
		<path class="st2" d="M36.63,174.59c-2.36,0.03-4.49-2.02-4.55-4.39c-0.05-2.03,1.98-4.05,4.13-4.12c2.34-0.07,4.32,1.86,4.37,4.28
			C40.62,172.58,38.77,174.57,36.63,174.59z"/>
		<path class="st2" d="M25.45,197.61c-1.57,0.02-2.99-1.35-3.03-2.92c-0.03-1.35,1.32-2.7,2.75-2.74c1.56-0.05,2.88,1.24,2.91,2.85
			C28.11,196.27,26.88,197.6,25.45,197.61z"/>
		<path class="st2" d="M116.55,81.55c-1.57,0.02-2.99-1.35-3.03-2.92c-0.03-1.35,1.32-2.7,2.75-2.74c1.56-0.05,2.88,1.24,2.91,2.85
			C119.22,80.21,117.98,81.54,116.55,81.55z"/>
		<path class="st2" d="M564.37,448.77c-5.05,0.41-9.97-3.64-10.41-8.58c-0.44-4.94,3.51-9.42,8.57-9.74
			c5.21-0.32,9.84,3.62,10.29,8.76C573.29,444.58,569.99,448.31,564.37,448.77z"/>
		<path class="st2" d="M544.67,476.56c-3.79,0.31-7.49-2.82-7.82-6.62c-0.34-3.8,2.62-7.25,6.42-7.49c3.91-0.24,7.39,2.8,7.73,6.76
			C551.36,473.34,548.88,476.22,544.67,476.56z"/>
		<path class="st2" d="M524.64,498.16c-3.03,0.25-5.99-2.26-6.26-5.3c-0.27-3.04,2.1-5.8,5.14-5.99c3.13-0.19,5.91,2.24,6.19,5.41
			C529.99,495.59,528.01,497.89,524.64,498.16z"/>
		<path class="st2" d="M503.68,514.07c-2.27,0.19-4.49-1.69-4.69-3.97c-0.2-2.28,1.57-4.35,3.85-4.49c2.35-0.14,4.43,1.68,4.64,4.05
			C507.7,512.14,506.21,513.86,503.68,514.07z"/>
		<g>
			<path class="st2" d="M522.7,272.45c-6.06-41.35-22.15-78.52-49.22-110.38c-26.19-30.83-57.8-54.52-96.09-68.76
				c-31.08-11.56-63.07-16.73-96.12-13.77c-40.46,3.62-77.55,16.89-111.14,39.92c-30.73,21.07-54.32,48.34-71.78,81.16
				c-11.5,21.61-17.71,44.86-21.93,68.71c-8.45,47.72,0.86,92.72,23.66,134.71c26.66,49.11,67.03,83.52,118.78,104.46
				c24.12,9.76,49.01,15.6,75.32,15.74c19.11,0.1,38.01-0.55,56.49-5.43c36.35-9.6,68.53-27.08,97.12-51.56
				c49.48-42.35,73.69-96.6,77.56-164.76C524.72,294.95,524.34,283.61,522.7,272.45z M85.07,291.38c0.68-6.12,1.15-12.26,1.71-18.4
				c0.34-3.75,2.21-4.12,5.02-2.24c6.76,4.53,13.52,9.06,20.24,13.66c2.63,1.8,5.32,3.58,3.95,7.64c-1.4,4.14-4.6,4.23-8.08,4.13
				c-2.83-0.08-5.66-0.02-8.5-0.02c0,0.01,0,0.02,0,0.03c-3.17,0-6.34-0.16-9.5,0.04C86.28,296.47,84.64,295.2,85.07,291.38z
				 M294.53,290.92c-0.2,5.57-2.5,7.31-7.92,6.32c-3.24-0.59-6.55-1.13-9.82-1.14c-19.83-0.09-39.66-0.02-59.49-0.01
				c-8.29,0-8.37-0.51-8.15-8.83c0.62-23.51,6.1-46.17,11.39-68.88c1.74-7.45,4.1-14.75,6.15-22.13c0.53-1.92,1.26-3.85,1.38-5.81
				c0.08-1.32-0.5-3.65-1.22-3.83c-1.34-0.34-3.56,0.07-4.39,1.04c-1.79,2.09-3.5,4.58-4.25,7.19
				c-7.7,26.76-14.05,53.82-16.91,81.59c-0.5,4.8-0.87,9.66-1.96,14.33c-0.4,1.74-2.6,3.14-4.14,4.53
				c-1.35,1.23-4.21,2.35-4.12,3.29c0.19,1.86,1.56,4.46,3.15,5.16c3.89,1.72,8.18,3.57,12.31,3.57c26.32,0,52.64-0.4,78.95-0.85
				c8.5-0.15,8.87-0.08,8.87,8.25c0.03,60.49,0.05,120.98,0.04,181.48c0,2.44-0.28,4.87-0.51,8.67c-2.92-1.7-5.13-2.65-6.94-4.1
				c-17.02-13.56-31-29.71-41.21-49c-4.59-8.68-9.01-17.45-13.77-26.03c-0.72-1.31-3.45-2.89-4.25-2.47
				c-1.51,0.81-3.11,2.94-3.18,4.59c-0.1,2.37,0.76,4.98,1.85,7.16c12.66,25.28,26.95,49.43,48.55,68.36
				c3.07,2.69,6.36,5.13,9.26,8.83c-1.72,0-3.44,0.06-5.16-0.01c-14.99-0.56-29.33-4.36-43.34-9.28
				c-25.43-8.92-49.63-20.22-70.61-37.64c-26.44-21.94-47.33-48.01-61.69-79.4c-10.19-22.27-15.62-45.61-18.25-69.76
				c-0.9-8.29-0.15-8.99,8.29-9.42c9.47-0.49,18.93-1.16,28.39-1.88c2.13-0.16,4.32-0.63,6.32-1.38c4.94-1.86,7.05-6.28,4.39-10.76
				c-2.13-3.58-5.18-6.92-8.54-9.38c-3.58-2.62-4.74-5.28-3.3-9.31c0.84-2.35,1.75-4.7,2.31-7.12c0.3-1.31,0.33-3.76-0.22-3.99
				c-1.51-0.62-3.65-0.91-5.06-0.26c-1.7,0.78-2.92,2.63-4.3,4.06c-2.32,2.41-5.23,4.75-8.22,2.46c-2.14-1.64-4.11-4.99-4.17-7.62
				c-0.31-15.66,10.24-24.4,25.68-21.87c4.96,0.81,8.22,3.39,9.33,8.42c0.07,0.33,0.04,0.72,0.22,0.97c1.56,2.1,3.15,4.16,4.73,6.24
				c1.58-2.29,4.42-4.52,4.53-6.88c0.42-9.48,4.9-15.74,12.15-21.7c9.08-7.46,16.92-16.46,25.05-25.04
				c3.81-4.03,7.99-6.89,13.53-7.81c5.72-0.95,9.94-3.99,13.13-9.03c1.79-2.83,4.79-4.95,7.4-7.2c1.76-1.51,3.94-2.53,5.68-4.06
				c5.72-5.04,5.49-9-0.1-14.08c-3.66-3.33-7.17-6.94-10.18-10.86c-2.9-3.77-6.02-4.37-9.23-1.34c-3.72,3.5-7.21,7.37-10.2,11.51
				c-7.98,11.08-15.62,22.39-23.42,33.59c-0.76,1.09-1.64,2.82-2.58,2.9c-2.77,0.25-5.6-0.17-8.4-0.33c0.2-1.95-0.2-4.28,0.72-5.8
				c4.66-7.68,9.62-15.17,14.56-22.67c1.72-2.61,2.91-4.84,1.08-8.21c-0.9-1.66-0.52-5.28,0.76-6.61c2.78-2.89,6.48-4.91,9.83-7.23
				c3.64-2.52,7.69-4.6,10.88-7.59c3-2.82,1.59-6.36-2.59-6.5c-2.71-0.1-5.87,0.95-8.16,2.47c-15.91,10.58-27.82,25.16-39.64,39.88
				c-13.22,16.45-24.67,33.94-33.38,53.19c-3.25,7.18-7.74,13.37-14.25,17.84c-0.53-0.14-1.06-0.27-1.58-0.41
				c0.17-3.15-0.41-6.58,0.64-9.4c3.66-9.8,7.19-19.74,12.03-28.97c9.71-18.52,22.42-34.96,36.31-50.64
				c19.08-21.54,43.03-35.45,68.96-46.58c20.95-9,42.95-14.21,65.46-17.38c0.94-0.13,1.92-0.02,4.18-0.02
				c-1.96,2.1-3.15,3.52-4.49,4.8c-16.2,15.44-28.43,33.89-40.09,52.78c-0.43,0.7-1.11,1.65-0.93,2.26c0.67,2.22,1.67,4.34,2.54,6.5
				c1.89-0.84,4.54-1.15,5.55-2.6c4.65-6.7,9.01-13.61,13.18-20.63c7.41-12.49,17.39-22.71,28.01-32.38
				c1.51-1.37,3.55-2.16,5.87-3.54c0.31,1.65,0.62,2.56,0.62,3.46c0.07,61.66,0.11,123.32,0.16,184.97
				C294.58,287.59,294.59,289.26,294.53,290.92z M512.56,302.67c2.82,33.42-6.83,64.33-21.92,93.12
				c-31.54,60.16-82.39,96.42-147.57,113.24c-7.83,2.02-16.13,2.21-24.23,3.15c-1.22,0.14-2.5-0.25-3.75-0.39
				c-0.47-0.6-0.94-1.2-1.4-1.8c1.81-1.13,3.83-2.02,5.39-3.42c32.83-29.41,53.9-65.78,62.74-108.87
				c3.6-17.56,5.23-35.52,7.66-53.32c0.29-2.12,0.49-4.48-0.16-6.43c-0.51-1.53-2.39-3.58-3.68-3.6c-1.28-0.02-3.52,2.08-3.74,3.5
				c-1.11,7.07-1.77,14.21-2.46,21.34c-2.35,24.15-6.61,47.92-16.2,70.33c-12.03,28.1-28.76,52.93-52.99,72.16
				c-1.17,0.93-2.38,1.82-3.62,2.65c-0.37,0.25-0.93,0.21-2.6,0.53c-0.48-135.84-0.25-271.36-0.27-406.88
				c0.62-0.15,1.23-0.3,1.85-0.45c1.53,1.17,3.1,2.3,4.59,3.52c13.89,11.36,25.78,24.56,35.88,39.39c1.87,2.75,3.94,4.77,7.87,3.22
				c3.49-1.38,4.15-3.49,1.94-6.03c-11.74-13.52-20.05-30.03-35.22-40.59c-1.97-1.37-3.59-3.25-5.37-4.89
				c0.16-0.48,0.32-0.96,0.48-1.45c3.96,0.37,7.96,0.47,11.87,1.16c29.99,5.25,58.54,14.94,84.53,30.74
				c23.85,14.5,43.39,34.08,60.35,56.26c16.01,20.95,26.71,44.46,34.35,69.51c0.92,3.02,1.62,6.13,2.08,9.25
				c0.68,4.58-1.14,6.22-5.32,4.16c-2.96-1.46-6.01-3.93-7.57-6.75c-2.62-4.75-4.44-10.04-5.99-15.28
				c-4.22-14.34-9.82-27.91-19.04-39.89c-3.64-4.73-6.19-10.27-9.61-15.19c-14.13-20.36-32.45-36.61-52.07-51.31
				c-10.56-7.91-19.73-6.78-26.81,1.29c-7.02,7.99-4.53,16.53,5.71,19.53c5.18,1.52,8.34-0.29,9.67-5.55c1.86-7.36,3.59-8,9.69-3.58
				c0.67,0.49,1.36,0.97,2,1.5c2.8,2.3,6.52,4.27,5.41,8.71c-1.23,4.91-3.98,9.06-9.33,10.06c-4.89,0.92-9.9,1.24-14.88,1.56
				c-10.52,0.67-11.47,2.92-8.56,12.7c3.42,11.52,11.05,19.56,19.26,27.42c1.75,1.67,4.09,4.32,6.16,1.46
				c1.15-1.59,0.63-4.95-0.12-7.19c-0.62-1.84-2.68-3.2-4.1-4.77c0.26-0.41,0.52-0.81,0.79-1.22c6.64,0.87,11.77,4.23,15.19,10.23
				c0.9,1.58,1.11,3.6,2.17,5.02c1.25,1.68,3.08,2.94,4.67,4.38c1.13-1.95,2.47-3.81,3.35-5.86c1.48-3.42,2.02-7.44,4.13-10.36
				c4.57-6.34,14.32-7.48,20.53-2.77c1.4,1.06,3,3.35,2.74,4.73c-0.32,1.68-2.28,3.43-3.96,4.38c-2.71,1.54-5.93,2.2-8.64,3.75
				c-1.41,0.8-3.32,3.03-3.01,4.01c0.56,1.81,2.3,3.94,4.03,4.55c3.07,1.08,6.5,1.29,9.8,1.57c4.77,0.41,6.75,2.57,7.18,7.6
				c0.45,5.35,1.63,10.95,3.9,15.78c4.09,8.72,8.86,17.19,14.08,25.29c2.63,4.07,6.51,7.59,10.48,10.47
				c6,4.34,10.08,3.52,15.61-1.57c1.21-1.11,2.97-1.62,4.48-2.41c0.73,1.58,2.05,3.14,2.08,4.73c0.13,6.8-0.11,13.6-0.24,20.41
				C512.77,300.35,512.46,301.53,512.56,302.67z"/>
			<path class="st2" d="M184.21,317.17c-0.75-0.35-1.42-0.86-2.11-1.33c-7.32-5.02-15.2-8.27-23.99-7.76
				c-6.91-0.36-13.62,0.48-16.88,6.81c-5.02,9.73-9.62,19.86-9.25,31.24c0.51,15.69,8.45,27.47,20.56,36.56
				c6.54,4.91,9.73,11.16,11.93,18.87c4.37,15.34,9.3,30.55,14.8,45.52c3.76,10.22,11.36,18.01,19.97,24.45
				c2.72,2.04,6.68,2.61,10.17,3.35c1.35,0.29,3-0.82,4.51-1.29c-0.68-1.4-1.12-2.99-2.07-4.15c-2.32-2.82-5.12-5.27-7.28-8.2
				c-5.62-7.63-4.92-12.99,1.87-19.58c7-6.8,12.04-16.93,6.88-29.45c-9.79-23.75-13.44-49.14-16.24-74.39
				C195.95,327.72,192.97,321.3,184.21,317.17z"/>
			<path class="st2" d="M222.47,405.15c0.89,1.37,4.22,2.54,5.67,1.94c7.97-3.33,14.26-8.1,15.13-17.94
				c0.55-6.16,1.82-12.55,4.26-18.2c5.09-11.8,2.85-19.66-9-24.66c-7.03-2.96-14.46-4.98-21.74-7.32c-5.84-1.87-6.87-1.05-7.13,5.03
				c2.75,16.89,5.35,33.82,8.37,50.66C218.68,398.34,220.43,402,222.47,405.15z"/>
			<path class="st2" d="M265.85,437.47c5.78,0.09,10.01-4.19,9.99-10.09c-0.02-5.12-4.65-9.33-10.29-9.37
				c-5.31-0.04-9.97,4.4-10.1,9.63C255.31,432.96,259.99,437.38,265.85,437.47z"/>
			<path class="st2" d="M218.65,121.07c-1.32,1.41-3.7,3.08-4.72,5.36c-0.76,1.7-0.5,4.76,0.61,6.19c2.09,2.69,5.11,4.68,7.77,6.91
				c2.74,2.3,5.75,1.82,7.27-0.92c1.37-2.48,2.5-6.13,1.67-8.56C229.56,125.13,225.3,122.25,218.65,121.07z"/>
			<path class="st2" d="M249.54,235.94c-4.85,0.18-8.85,4.33-8.75,9.06c0.11,4.83,4.44,8.67,9.72,8.6c5.19-0.07,8.52-3.31,8.55-8.31
				C259.1,240.08,254.68,235.75,249.54,235.94z"/>
			<path class="st2" d="M152.58,280.27c0.77-0.11,2.1-0.25,3.39-0.52c3.58-0.75,6.38-2.43,5.98-6.61c-0.39-4.02-2.94-6.22-6.91-6.58
				c-1.46-0.13-2.99,0.09-4.45,0.37c-5.4,1.02-8.67,4.03-8.44,7.64C142.36,277.77,146.68,280.27,152.58,280.27z"/>
			<path class="st2" d="M494.62,309.38c-9.47,0.01-18.96,0.71-28.42,0.42c-4.51-0.14-5.63,1.26-6.07,5.44
				c-0.79,7.58-2.05,15.14-3.64,22.6c-0.92,4.35-5.06,5.93-7.72,3.16c-1.35-1.4-1.91-4.16-1.78-6.25c0.37-6.47,1.2-12.92,1.94-19.36
				c0.43-3.76-1.22-5.02-4.85-4.93c-7.15,0.16-14.31,0.05-21.47,0.05c0-0.12,0-0.25,0-0.37c-7.49,0-14.99-0.11-22.48,0.09
				c-1.63,0.04-4.55,1.03-4.63,1.81c-0.46,4.46-1.8,9.79,0.04,13.34c5.6,10.82,8.86,21.85,7.75,34c-0.76,8.28-1.58,16.57-2.75,24.8
				c-1.4,9.87-3.68,19.58-0.46,29.6c4.89,15.25,17.81,20.1,30.21,10.02c6.85-5.56,12.55-12.76,17.94-19.85
				c5.71-7.51,10.16-15.98,15.71-23.63c4.57-6.31,7.36-12.78,7.07-20.75c-0.4-10.99,4.51-19.59,13.4-25.92
				c3.12-2.22,6.56-4.01,9.53-6.39c2.82-2.26,5.96-4.64,7.57-7.7c1.15-2.19,0.73-5.97-0.43-8.32
				C500.38,309.88,496.86,309.38,494.62,309.38z"/>
			<path class="st2" d="M379.51,254.36c-1.76-10.32-4.23-20.58-12.01-28.55c-4.58-4.69-6.97-5.46-11.95-1.26
				c-7.1,5.99-13.77,12.52-20.39,19.05c-5.62,5.55-8.69,12.65-10.18,20.24c-2.01,10.3-2.18,20.59,3.78,29.92
				c4.55,7.12,7.94,8.03,16.03,5.68c4.27-1.24,8.74-1.97,13.17-2.39c5.12-0.48,10.31-0.26,15.46-0.54
				c9.17-0.51,9.53-0.96,9.34-14.34C382.05,275.82,381.32,265,379.51,254.36z"/>
			<path class="st2" d="M445.05,294.6c3.78,0,3.6-2.53,3.32-5.22c-1.83-17.35-6.72-33.89-12.96-50.1c-1.76-4.56-4.8-5.83-9.52-6.32
				c-5.8-0.6-11.76-2.02-17.05-4.42c-5.37-2.44-9.99-6.54-14.98-9.85c-2.26-1.5-4.62-2.86-8.13-5.01
				c3.18,28.04,6.18,54.54,9.16,80.92C411.17,294.61,428.11,294.62,445.05,294.6z"/>
			<path class="st2" d="M453.27,254.98c2.47,11.5,4.28,23.16,6.01,34.81c0.6,4.01,1.94,5.89,6.28,5.78
				c4.97-0.12,9.95,0.53,14.93,0.68c1.75,0.05,3.52-0.4,5.29-0.63c-8.08-5.35-12.56-12.77-16.55-20.47
				c-6.19-11.95-12.02-24.09-18.13-36.08c-1.04-2.03-2.69-3.75-4.07-5.61c-0.63,0.32-1.26,0.64-1.89,0.96
				c0.77,2.13,1.46,4.29,2.32,6.38C449.4,245.53,452.22,250.06,453.27,254.98z"/>
			<path class="st2" d="M363.73,207.62c2.93-1.3,5.35-3.75,8.28-5.87c2.35,1.88,5,4,8.26,6.62c1.11-6.56-4.68-22.92-8.99-26.09
				c-0.6-0.44-3.7,1.05-3.67,1.47c0.68,7.63-4.2,7.72-9.58,7.51c-1.63-0.07-3.3,0.37-4.93,0.7c-3.5,0.7-4.97,2.94-4.94,6.44
				C348.24,205.92,356.28,210.91,363.73,207.62z"/>
			<path class="st2" d="M376.02,309.41c-5.46-0.22-10.95,0.31-16.18,0.55c-4.58,0-8.91-0.1-13.23,0.06
				c-1.19,0.05-3.28,0.79-3.34,1.37c-0.12,1.27,0.64,2.73,1.35,3.93c0.47,0.81,1.44,1.35,2.23,1.95c9.69,7.34,20.53,5.44,31.19,3.46
				c4.26-0.79,3.38-5.11,2.72-7.94C380.42,311.33,377.72,309.48,376.02,309.41z"/>
			<path class="st2" d="M484.93,378.81c-1.16-0.47-3.64,0.07-4.32,1.03c-5.75,8.03-11.31,16.21-16.66,24.52
				c-0.65,1-0.2,3.64,0.7,4.43c0.81,0.71,3.24,0.41,4.43-0.31c9.64-5.88,14.06-15.48,18.09-26.13
				C486.55,381.28,486.05,379.27,484.93,378.81z"/>
			<path class="st2" d="M360.01,170.98c4.94,0,8.96-3.06,8.95-6.81c-0.01-4.2-4.3-7.89-9.3-7.99c-4.85-0.1-10.18,3.69-10.11,7.19
				C349.61,167.06,355.01,170.99,360.01,170.98z"/>
			<path class="st2" d="M341.17,362.24c-1.51,1.69-3.89,3.21-4.26,5.12c-0.29,1.49,1.93,3.46,3.03,5.21
				c0.66,0.03,1.31,0.07,1.97,0.1c1.3-2.01,3.46-3.97,3.58-6.05C345.57,365.25,342.71,363.71,341.17,362.24z"/>
		</g>
	</g>
	<g>
		<path class="st2" d="M100.13,635.34c7.27,0.11,14.23,0.16,20.87,0.16c8.7,0,15.94-0.05,21.74-0.16
			c-1.38,17.65-2.37,37.25-2.95,58.81c-8.75,1.74-16.65,2.96-23.71,3.68c-7.06,0.71-13.06,1.07-18.01,1.07
			c-9.27,0-17.87-0.98-25.8-2.92c-7.93-1.95-14.63-5.11-20.11-9.49c-5.48-4.37-9.65-10.13-12.52-17.27
			c-2.87-7.14-4.31-14.69-4.31-22.64c0-6.8,1.07-13.36,3.2-19.68s5.3-12.12,9.48-17.39c4.19-5.27,9.25-9.66,15.18-13.16
			c5.93-3.5,12.22-5.9,18.89-7.19c6.67-1.29,13.71-1.94,21.14-1.94c10.22,0,21.97,1.37,35.25,4.11c0.05,5.98,0.34,12.25,0.87,18.81
			c-12.44-4.16-23.69-6.24-33.75-6.24c-6.48,0-12.61,0.92-18.38,2.77c-5.77,1.85-10.75,4.7-14.94,8.58
			c-4.19,3.87-7.38,8.67-9.56,14.39c-2.19,5.72-3.28,11.63-3.28,17.74c0,6.8,1.25,12.87,3.75,18.22c2.5,5.35,6.7,9.5,12.61,12.45
			c5.9,2.95,12.67,4.43,20.31,4.43c2.79,0,6.09-0.25,9.88-0.75s7.75-1.36,11.86-2.57l1.3-27.74l-6.25-0.08
			c-3.54,0-8.02,0.08-13.46,0.24C99.89,644.49,100.13,639.08,100.13,635.34z"/>
	</g>
	<g>
		<path class="st2" d="M174.19,639.24c1.12-10.94,1.79-22.99,2.01-36.13l-14.37,0.37l0.17-3.75c0.09-2,0.16-4.2,0.2-6.58
			c6.39,0.04,13.84,0.07,22.35,0.07l8.34-0.03h8.1l4.39-0.03l-0.2,3.31c-0.09,1.77-0.15,3.24-0.19,4.4
			c-0.03,1.16-0.05,2.03-0.05,2.63c-4.81-0.25-8.78-0.37-11.91-0.37h-2.36c-0.34,3.98-0.6,7.65-0.78,11.02
			c-0.25,4.83-0.44,9.52-0.58,14.07c-0.14,4.55-0.2,8.23-0.2,11.04c-3.69-0.04-6.08-0.07-7.16-0.07
			C180.98,639.17,178.4,639.19,174.19,639.24z"/>
		<path class="st2" d="M207.79,639.24c0.56-5.81,0.98-10.67,1.24-14.59c0.26-3.92,0.52-9.12,0.78-15.62
			c0.26-6.5,0.39-10.8,0.39-12.92l-0.03-2.97c5.31,0.04,11.74,0.07,19.28,0.07c6.96,0,13.09-0.02,18.4-0.07l-0.07,1.11
			c-0.02,0.27-0.08,1.25-0.17,2.93l-0.2,3.67c-0.05,0.79-0.07,1.58-0.07,2.39c-4.34-0.18-7.99-0.27-10.94-0.27
			c-3.24,0-5.43,0.01-6.57,0.02c-1.14,0.01-2.91,0.06-5.32,0.15l-0.41,7.77c2.66,0.07,5.75,0.1,9.29,0.1
			c1.26,0,4.62-0.08,10.07-0.24c-0.23,2.88-0.44,6.31-0.64,10.3c-3.89-0.04-6.88-0.07-8.98-0.07c-3.11,0-6.58,0.08-10.43,0.24
			l-0.4,8.21h3.88c1.15,0,3.52-0.03,7.12-0.1l6.99-0.17c1.04-0.02,2.77-0.11,5.2-0.27c-0.27,3.33-0.5,6.78-0.68,10.33
			c-5.49-0.04-11.52-0.07-18.07-0.07l-14.86,0.03L207.79,639.24z"/>
		<path class="st2" d="M293.33,627.99c-0.27,1.32-0.6,3.17-0.98,5.54s-0.64,4.2-0.78,5.5c-4.82,0.72-9.12,1.08-12.9,1.08
			c-3.65,0-7.04-0.46-10.18-1.37c-3.14-0.91-6.02-2.41-8.65-4.49c-2.62-2.08-4.5-4.53-5.62-7.34c-1.13-2.81-1.69-5.97-1.69-9.46
			c0-4.08,0.76-7.74,2.28-10.99c1.52-3.25,3.7-5.97,6.55-8.14c2.85-2.17,5.97-3.73,9.37-4.66c3.4-0.93,6.91-1.4,10.54-1.4
			c3.33,0,7.45,0.43,12.36,1.28l0.07,2.84c0.04,1.24,0.11,2.6,0.2,4.09l0.24,3.85c-2.63-0.63-4.77-1.06-6.4-1.28
			c-1.63-0.22-3.15-0.34-4.54-0.34c-3.04,0-5.78,0.61-8.21,1.82c-2.43,1.22-4.35,2.98-5.74,5.3c-1.4,2.32-2.09,4.89-2.09,7.7
			c0,2.57,0.58,4.77,1.76,6.6c1.17,1.83,2.75,3.25,4.75,4.25c1.99,1,4.45,1.5,7.38,1.5c1.6,0,3.34-0.13,5.22-0.39
			S290.49,628.73,293.33,627.99z"/>
		<path class="st2" d="M299.2,638.26c-0.18-3.42-0.42-6.21-0.71-8.38c4.41,2,8.42,3.01,12.02,3.01c1.44,0,2.79-0.22,4.04-0.66
			c1.25-0.44,2.17-1.06,2.77-1.86c0.6-0.8,0.89-1.69,0.89-2.69c0-0.76-0.14-1.45-0.43-2.06c-0.43-0.83-1.15-1.7-2.15-2.6
			c-1.29-1.24-3.58-3.28-6.89-6.11c-1.58-1.37-2.66-2.35-3.26-2.94c-1.35-1.28-2.39-2.44-3.11-3.46c-0.72-1.02-1.24-2.04-1.55-3.06
			c-0.32-1.01-0.47-2.09-0.47-3.24c0-2.12,0.59-4.1,1.77-5.96s2.95-3.31,5.3-4.36c2.35-1.05,5.32-1.57,8.9-1.57
			c3.22,0,6.84,0.39,10.87,1.18c0.11,2.34,0.34,5.02,0.68,8.04c-3.5-1.35-6.74-2.03-9.71-2.03c-2.2,0-4,0.5-5.41,1.5
			c-1.4,1-2.11,2.17-2.11,3.5c0,0.36,0.05,0.74,0.15,1.13c0.1,0.39,0.25,0.78,0.44,1.15c0.2,0.37,0.54,0.86,1.05,1.45
			c0.5,0.6,1.24,1.29,2.2,2.09c0.97,0.8,1.79,1.45,2.48,1.94l4.17,3.78c1.06,0.88,2,1.73,2.83,2.57c0.83,0.83,1.54,1.63,2.14,2.4
			c0.59,0.77,1.06,1.5,1.4,2.2c0.34,0.7,0.59,1.41,0.76,2.14s0.25,1.5,0.25,2.31c0,1.89-0.44,3.68-1.32,5.35
			c-0.88,1.68-2.14,3.06-3.78,4.14c-1.64,1.08-3.44,1.83-5.4,2.25c-1.96,0.42-4.03,0.63-6.21,0.63c-1.44,0-3.12-0.12-5.03-0.37
			C304.86,639.43,302.33,638.95,299.2,638.26z"/>
		<path class="st2" d="M335.81,639.24l0.98-12.93l0.71-14.96l0.44-13.61v-4.59c5.56,0.04,11.36,0.07,17.39,0.07l6.48-0.03l9.76-0.03
			l-0.41,7.29l-3.21-0.17c-0.88-0.04-2.09-0.08-3.65-0.1c-1.55-0.02-3.14-0.03-4.76-0.03c-3.51,0-5.78,0.01-6.8,0.02
			c-1.02,0.01-2.57,0.05-4.64,0.12l-0.55,11.99c3.09,0.07,6.19,0.1,9.33,0.1c2.16,0,5.81-0.07,10.95-0.2
			c-0.18,2.05-0.34,4.5-0.47,7.36c-6.01-0.07-9.45-0.1-10.33-0.1c-2.66,0-5.97,0.07-9.93,0.2l-0.55,12.63l3.71,0.03
			c1.08,0,3.56-0.02,7.43-0.07l7.33-0.13l4.9-0.24c-0.23,2.61-0.38,5.08-0.47,7.4c-5.85-0.04-11.13-0.07-15.84-0.07l-11.11,0.03
			L335.81,639.24z"/>
		<path class="st2" d="M378.02,639.24c0.68-6.71,1.19-14.42,1.53-23.13c0.34-8.71,0.51-16.37,0.51-22.96
			c2.7,0.04,4.96,0.07,6.79,0.07c1.96,0,3.88-0.03,5.76-0.1c1.88-0.07,3.87-0.1,5.96-0.1c2.61,0,4.95,0.15,7,0.44
			c2.06,0.29,3.89,0.97,5.49,2.03s2.79,2.34,3.56,3.85c0.78,1.51,1.17,3.26,1.17,5.27c0,1.26-0.15,2.46-0.44,3.6
			c-0.29,1.14-0.73,2.21-1.3,3.21c-0.57,1-1.25,1.88-2.04,2.63s-1.57,1.35-2.35,1.79c-0.78,0.44-1.66,0.82-2.65,1.13
			c-0.99,0.32-2.32,0.7-3.98,1.15l2.3,4.46c0.74,1.42,2.15,3.96,4.22,7.63l3.41,5.98c0.18,0.32,0.72,1.34,1.62,3.07
			c-2.75-0.04-4.57-0.07-5.45-0.07c-1.08,0-2.99,0.02-5.72,0.07l-3.74-8.98c-0.65-1.37-1.44-2.99-2.36-4.86l-4.08-8.21
			c-0.4-0.76-0.97-1.91-1.69-3.44c1.51,0.27,2.88,0.41,4.12,0.41c1.94,0,3.71-0.32,5.31-0.95c1.6-0.63,2.83-1.6,3.68-2.92
			c0.86-1.32,1.28-2.75,1.28-4.31c0-0.95-0.19-1.82-0.56-2.63c-0.37-0.81-1-1.5-1.87-2.06s-1.92-0.92-3.14-1.08
			c-1.22-0.16-2.43-0.24-3.65-0.24c-0.67,0-1.6,0.01-2.77,0.03c-1.17,0.02-2.61,0.03-4.32,0.03l-0.6,13.88l-0.64,25.33l-5.24-0.07
			C382.29,639.17,380.59,639.19,378.02,639.24z"/>
		<path class="st2" d="M434.4,639.24l-1.28-4.25c-0.18-0.56-0.92-2.71-2.23-6.45l-6.56-18.64l-6.02-16.75
			c2.32,0.04,4.24,0.07,5.77,0.07c0.94,0,2.6-0.02,4.96-0.07l1.05,3.75c0.23,0.77,0.55,1.8,0.98,3.11l8.2,24.75
			c0.5,1.6,1.14,3.7,1.93,6.32l1.82-4.12c0.45-1.01,1.38-2.99,2.8-5.94l10.62-22.22c0.31-0.65,0.63-1.35,0.94-2.08
			s0.81-1.92,1.48-3.56c2.45,0.04,4.32,0.07,5.6,0.07c0.76,0,2.53-0.02,5.3-0.07l-2.9,5.4l-18.46,36.47l-1.96,4.22
			c-2.93-0.04-4.89-0.07-5.88-0.07C439.7,639.17,437.64,639.19,434.4,639.24z"/>
		<path class="st2" d="M470.96,639.24c0.54-7.74,0.97-15.69,1.31-23.83c0.34-8.14,0.5-14.36,0.5-18.66l-0.03-3.61l5.64,0.07
			c0.31,0,2.04-0.02,5.17-0.07c-0.92,11.84-1.5,27.21-1.75,46.1l-4.97-0.07C476.01,639.17,474.05,639.19,470.96,639.24z"/>
		<path class="st2" d="M528.94,630.79c-0.5,2.63-0.92,5.31-1.28,8.04c-2.57,0.45-4.92,0.76-7.06,0.95s-3.97,0.27-5.5,0.27
			c-3.38,0-6.6-0.47-9.67-1.42c-3.07-0.95-5.84-2.44-8.31-4.47c-2.47-2.04-4.25-4.51-5.35-7.41c-1.1-2.9-1.66-6.08-1.66-9.52
			c0-3.74,0.66-7.19,1.99-10.37c1.33-3.17,3.24-5.85,5.72-8.04c2.49-2.18,5.43-3.81,8.83-4.88c3.4-1.07,6.94-1.6,10.64-1.6
			c3.65,0,7.63,0.42,11.95,1.25c0.07,2,0.13,3.42,0.2,4.25l0.24,3.61c-2.54-0.67-4.66-1.14-6.35-1.38c-1.69-0.25-3.3-0.37-4.83-0.37
			c-2.41,0-4.72,0.37-6.94,1.1c-2.22,0.73-4.18,1.9-5.88,3.5c-1.7,1.6-3,3.53-3.92,5.79s-1.37,4.62-1.37,7.07
			c0,2.93,0.56,5.55,1.69,7.87c1.13,2.32,2.93,4.2,5.42,5.64c2.49,1.44,5.57,2.16,9.24,2.16
			C520.15,632.82,524.21,632.14,528.94,630.79z"/>
		<path class="st2" d="M536.07,639.24l0.98-12.93l0.71-14.96l0.44-13.61v-4.59c5.56,0.04,11.36,0.07,17.39,0.07l6.48-0.03l9.76-0.03
			l-0.41,7.29l-3.21-0.17c-0.88-0.04-2.09-0.08-3.65-0.1c-1.55-0.02-3.14-0.03-4.76-0.03c-3.51,0-5.78,0.01-6.8,0.02
			c-1.02,0.01-2.57,0.05-4.64,0.12l-0.55,11.99c3.09,0.07,6.19,0.1,9.33,0.1c2.16,0,5.81-0.07,10.95-0.2
			c-0.18,2.05-0.34,4.5-0.47,7.36c-6.01-0.07-9.45-0.1-10.33-0.1c-2.66,0-5.97,0.07-9.93,0.2l-0.55,12.63l3.71,0.03
			c1.08,0,3.56-0.02,7.43-0.07l7.33-0.13l4.9-0.24c-0.23,2.61-0.38,5.08-0.47,7.4c-5.85-0.04-11.13-0.07-15.84-0.07l-11.11,0.03
			L536.07,639.24z"/>
	</g>
</g>
</svg>
